<?xml version="1.0" standalone="no"?><!DOCTYPE svg PUBLIC "-//W3C//DTD SVG 1.1//EN" "http://www.w3.org/Graphics/SVG/1.1/DTD/svg11.dtd"><svg t="1681306991880" class="icon" viewBox="0 0 1024 1024" version="1.1" xmlns="http://www.w3.org/2000/svg" p-id="1705" xmlns:xlink="http://www.w3.org/1999/xlink" width="200" height="200"><path d="M649.507633 776.663605L186.34304 647.569981 353.900706 46.477383l463.151456 129.093624z" fill="#E6EEF1" p-id="1706"></path><path d="M652.299166 592.041462L273.2878 486.396716 378.925978 107.398486l378.99823 105.638179z" fill="#EBC14C" p-id="1707"></path><path d="M206.783631 376.15415l463.151456-129.093624 167.544528 601.086029-463.158024 129.093625z" fill="#E6EEF1" p-id="1708"></path><path d="M265.839333 414.059885l378.99823-105.638179 105.638178 378.99823-378.99823 105.638178z" fill="#E084B3" p-id="1709"></path><path d="M566.845414 634.499038c12.479795 5.25465 26.930083 0 32.184734-12.479795L650.262989 504.44644c12.479795-28.900577-3.940988-63.712636-32.184734-76.192431-28.900577-12.479795-65.026299-0.656831-77.506093 28.243746l-12.479795 28.900577-27.586915-11.822963c-28.900577-12.479795-63.712636 3.940988-76.192431 32.841565-12.479795 28.900577-0.656831 65.68313 27.586915 78.162925l114.945478 49.919179z" fill="#C30D23" p-id="1710"></path><path d="M511.014753 695.584349c12.479795 5.25465 26.930083 0 32.184734-12.479795l53.203335-121.513791c13.136626-29.557409-3.940988-65.68313-32.841565-78.819756s-66.996793-0.656831-80.133419 28.900577l-13.136626 30.21424-28.243746-12.479794c-29.557409-13.136626-65.68313 3.940988-78.162925 33.498396S362.570879 630.55805 391.471456 643.694676l119.543297 51.889673z" fill="#E83828" p-id="1711"></path><path d="M462.409237 890.006414c-1.313663 0-2.627325 0-3.940988-0.656831-5.25465-1.313663-7.225144-3.940988-7.881976-6.568313-0.656831-1.970494-0.656831-5.25465 2.627325-8.538807 1.970494-2.627325 5.25465-3.940988 9.195639-5.25465 2.627325-0.656831 5.25465-1.313663 7.881975-1.313663 2.627325 0 5.25465 0 9.195639 0.656831 0.656831-1.970494 1.313663-3.940988 1.970493-6.568313 0.656831-2.627325 1.313663-5.25465 1.313663-8.538807h-3.940988c-3.284157 0-6.568313-0.656831-9.852469-1.970493-5.911482-2.627325-9.195638-6.568313-11.166132-13.136626-2.627325-7.881976-0.656831-16.420783 5.911481-24.302759 5.911482-7.881976 14.450289-13.136626 24.95959-16.420782 2.627325-0.656831 3.940988-1.313663 5.25465-1.313663 2.627325 0 3.940988 1.970494 4.597819 3.284157l0.656832 1.313662c3.940988-5.911482 8.538807-9.195638 13.136626-10.509301 1.313663-0.656831 2.627325-0.656831 3.940987-0.656831 1.970494 0 3.940988 0.656831 5.911482 1.313663 2.627325 1.313663 5.25465 3.940988 5.911482 7.881975 1.970494 6.568313 0 13.793457-4.597819 22.989096-4.597819 7.881976-11.166132 15.10712-19.048108 21.018602-0.656831 5.911482-1.970494 11.822963-3.940988 16.420782-1.313663 3.284157-3.284157 6.568313-5.25465 9.85247 1.313663 0 2.627325 0 3.284156-0.656832 3.284157-0.656831 7.881976-4.597819 15.10712-17.734445 1.313663-1.970494 1.970494-3.284157 2.627325-4.597819 2.627325-4.597819 4.597819-8.538807 6.568313-11.166132 2.627325-3.284157 4.597819-5.25465 5.911482-5.911482H530.719692l9.195638-0.656831-6.568313 6.568313c-0.656831 0.656831-3.284157 3.940988-8.538807 13.793457l-1.970494 3.940988c0 0.656831-0.656831 1.313663-1.313662 3.284157-7.225144 13.136626-13.793457 20.36177-20.36177 22.332264-1.970494 0.656831-3.940988 0.656831-5.911482 0.656831h-0.656832c-1.970494 0-3.940988 0-5.911481-0.656831-1.970494 1.970494-4.597819 3.940988-7.225145 5.25465-3.284157 1.970494-6.568313 3.284157-9.852469 4.597819-4.597819 1.313663-7.225144 1.970494-9.195638 1.970494z m-3.284157-9.195638s0.656831 0.656831 1.313663 0.656831h1.970494c1.313663 0 2.627325 0 3.940988-0.656831 1.970494-0.656831 4.597819-1.970494 5.911481-3.284156 0.656831 0 1.970494-0.656831 2.627325-1.313663H472.918538v-2.627325l-1.313663 3.284156c-2.627325 0-5.25465 0-6.568313 0.656832-1.970494 0.656831-3.940988 1.313663-5.254651 2.627325-0.656831 0-0.656831 0.656831-0.656831 0.656831z m38.096216-75.5356c-0.656831 0.656831-1.313663 0.656831-1.970494 0.656832h-0.656832c-3.284157 0.656831-5.911482 1.970494-8.538806 3.284156-1.970494 1.313663-4.597819 2.627325-5.911482 4.597819-3.284157 3.284157-5.911482 7.225144-7.881976 12.479795-1.313663 4.597819-1.970494 8.538807-0.656831 12.479795 0.656831 3.284157 2.627325 5.25465 4.597819 5.911482 1.313663 0.656831 2.627325 0.656831 4.597819 0.656831 1.313663 0 2.627325 0 3.940988-0.656831 1.970494-13.136626 5.25465-24.959589 9.852469-34.812059 0-1.313663 1.313663-2.627325 2.627326-4.59782z m18.391276-5.25465h-0.656831c-3.284157 1.313663-5.911482 6.568313-7.225144 10.509301-1.970494 5.911482-2.627325 13.136626-2.627326 22.989095l2.627326-2.627325c2.627325-3.284157 4.597819-6.568313 6.568313-10.509301 1.313663-3.940988 2.627325-7.225144 3.284156-10.5093 0.656831-3.940988 0.656831-5.911482 0-7.225145 0-0.656831-0.656831-1.313663-1.313663-1.970494 0-0.656831-0.656831-0.656831-0.656831-0.656831z" fill="#E83828" p-id="1712"></path><path d="M515.612572 794.765876c1.313663 0 2.627325 0.656831 3.940988 1.313662 1.970494 1.313663 3.940988 3.284157 4.597819 5.911482 1.313663 5.25465 0 12.479795-4.597819 20.36177s-11.166132 15.10712-19.048108 21.018602c-0.656831 6.568313-1.970494 12.479795-3.940988 17.077614-1.970494 5.25465-4.597819 9.195638-8.538807 13.136626 1.970494 0.656831 3.940988 0.656831 5.254651 0.656831 1.970494 0 3.284157 0 4.597819-0.656831 5.25465-1.313663 11.166132-7.881976 17.077614-19.048108 1.313663-1.970494 1.970494-3.284157 2.627325-4.597819 2.627325-4.597819 4.597819-8.538807 6.568313-11.166132 1.970494-2.627325 3.284157-3.940988 4.597819-4.597819h1.313663c-1.970494 1.970494-5.25465 6.568313-9.195638 14.450288-0.656831 1.313663-1.313663 2.627325-1.970494 3.284157-0.656831 0.656831-0.656831 1.970494-1.970494 3.284156-6.568313 12.479795-12.479795 19.048108-18.391277 21.018602-1.970494 0.656831-3.284157 0.656831-5.25465 0.656831H492.623477c-1.970494 0-4.597819-0.656831-7.225145-1.313662-2.627325 2.627325-5.25465 4.597819-7.881975 5.911481-3.284157 1.970494-5.911482 3.284157-9.195639 3.940988-2.627325 0.656831-4.597819 1.313663-6.568313 1.313663-1.313663 0-1.970494 0-3.284156-0.656831-2.627325-0.656831-4.597819-1.970494-5.254651-3.940988-0.656831-1.970494 0-3.940988 1.970494-5.911482 1.970494-1.970494 3.940988-1.970494 7.881976-3.284156 1.970494-0.656831 4.597819 0.656831 7.225144 0.656831 2.627325 0 6.568313-0.656831 11.166132 0 1.313663-1.970494 2.627325-5.911482 3.284157-9.85247 0.656831-3.940988 1.313663-8.538807 1.970494-13.793457-2.627325 0.656831-5.25465 1.313663-7.881976 1.313663-3.284157 0-5.911482-0.656831-8.538807-1.970494-4.597819-1.970494-7.881976-5.911482-9.195638-10.509301-1.970494-7.225144 0-13.793457 5.254651-21.018602s13.136626-11.822963 22.989095-15.10712c1.970494-0.656831 3.940988-0.656831 4.597819-0.656831 0.656831 0 1.313663 0 1.313663 0.656831v0.656831c0 0.656831-0.656831 0-0.656832 0.656832h-0.656831-1.313662c-3.284157 0.656831-5.911482 1.970494-8.538807 3.284156s-4.597819 3.284157-7.225145 4.597819c-3.940988 3.940988-6.568313 8.538807-8.538807 13.793458-1.970494 5.25465-1.970494 9.85247-1.313662 14.450288 1.313663 3.940988 3.284157 6.568313 6.568313 8.538807 1.970494 0.656831 3.940988 1.313663 5.911482 1.313663 1.970494 0 3.940988 0 5.911481-0.656831l1.313663-0.656832c1.313663-13.793457 4.597819-25.616421 9.852469-35.46889 4.597819-9.85247 9.85247-15.10712 15.763952-17.077614 1.313663-1.313663 2.627325-1.313663 3.284156-1.313662m-14.450288 45.978191c3.284157-1.970494 5.911482-4.597819 8.538806-7.881976s5.25465-7.225144 7.225145-11.822963c1.970494-3.940988 3.284157-7.881976 3.940988-11.166132 0.656831-3.940988 0.656831-6.568313 0-8.538807-0.656831-1.970494-1.313663-3.284157-2.627326-3.940988-0.656831-0.656831-1.313663-0.656831-2.627325-0.656832h-1.970494c-3.940988 1.313663-7.225144 5.25465-9.195638 13.136627-1.970494 7.881976-3.284157 17.734445-3.284156 30.871071m-38.753047 44.007697c1.313663 0 3.284157 0 4.597819-0.656831 2.627325-0.656831 5.25465-1.970494 7.225144-3.940988 1.970494-1.970494 3.940988-3.284157 5.254651-5.911482-3.940988-0.656831-7.225144-0.656831-9.85247-0.656831-2.627325 0-4.597819 0-7.225144 0.656831-2.627325 0.656831-4.597819 1.970494-5.911482 3.284157-1.313663 1.313663-1.970494 2.627325-1.313663 3.940987s1.970494 2.627325 3.940988 2.627326c1.313663 0.656831 2.627325 0.656831 3.284157 0.656831m53.203335-96.554201c-1.313663 0-3.284157 0-5.25465 0.656831-3.940988 1.313663-7.881976 3.940988-11.822964 7.881975-1.313663-1.313663-3.284157-1.970494-5.25465-1.970493-1.313663 0-3.284157 0.656831-6.568313 1.313662-11.166132 3.284157-20.36177 9.195638-26.930084 17.077614-6.568313 8.538807-8.538807 17.734445-5.911481 26.930083 1.970494 7.225144 6.568313 10.509301 13.136626 13.136626 3.284157 1.313663 7.225144 0.656831 11.166132 0.656832h0.656831c0 6.568313-0.656831 4.597819-0.656831 5.911481-0.656831 1.313663-0.656831 3.284157-1.313663 4.59782h-7.225144c-3.284157 0-6.568313 0.656831-9.195638 1.313662-4.597819 1.313663-7.881976 3.284157-10.509301 5.911482-4.597819 4.597819-3.940988 9.85247-3.284157 11.822963 0.656831 2.627325 3.284157 7.225144 9.85247 8.538807 1.313663 0.656831 3.284157 0.656831 4.597819 0.656832 2.627325 0 5.25465-0.656831 8.538807-1.313663 3.940988-1.313663 7.225144-2.627325 11.166132-4.597819 2.627325-1.313663 4.597819-2.627325 6.568313-4.597819 1.970494 0 3.284157 0.656831 5.254651 0.656831h0.656831c2.627325 0 4.597819 0 7.225144-0.656831 7.881976-1.970494 15.10712-9.85247 22.332264-24.302758 0.656831-1.313663 1.313663-1.970494 1.313663-3.284157 0.656831-0.656831 1.313663-1.970494 1.970494-3.940988 5.25465-9.85247 7.881976-12.479795 7.881976-13.136626l13.136626-12.479795-18.391277 1.313663h-1.313662c-0.656831 0-0.656831 0-1.313663 0.656831-2.627325 0.656831-5.25465 2.627325-7.881976 7.225145-1.970494 2.627325-4.597819 6.568313-7.225144 11.822963-0.656831 1.313663-1.313663 2.627325-2.627325 4.597819-2.627325 5.25465-5.25465 9.195638-7.225144 11.166132 1.970494-4.597819 3.284157-9.85247 3.940987-15.763951 7.881976-5.911482 14.450289-13.136626 19.048108-21.675433 5.25465-9.85247 7.225144-18.391276 4.597819-25.616421-1.313663-4.597819-3.940988-7.881976-7.881975-9.852469 0 0-2.627325-0.656831-5.254651-0.656831z m-7.225144 34.155227c0.656831-3.940988 1.313663-7.881976 1.970494-10.509301 1.313663-3.940988 2.627325-6.568313 3.284156-7.881975 0 0.656831 0 1.970494-0.656831 4.597819-0.656831 3.284157-1.970494 6.568313-3.284157 9.852469 0 1.970494-0.656831 3.284157-1.313662 3.940988z m-28.243746 20.361771c-1.313663 0-1.970494 0-3.284157-0.656832s-2.627325-1.313663-3.284156-3.940987c-0.656831-2.627325-0.656831-5.911482 0.656831-10.509301 1.313663-4.597819 3.940988-7.881976 7.225144-11.166132 1.313663-1.313663 3.284157-2.627325 5.254651-3.940988 0.656831-0.656831 1.970494-0.656831 2.627325-1.313663-3.940988 8.538807-7.225144 19.048108-8.538807 31.527903h-0.656831z" fill="#EAB1D0" p-id="1713"></path><path d="M548.454137 865.703656c-3.940988 0-7.225144-1.313663-10.509301-3.284156-4.597819-3.284157-7.881976-7.881976-9.852469-14.450289-1.970494-7.225144-1.970494-15.10712 1.313663-24.302758 2.627325-8.538807 7.881976-17.734445 14.450288-26.930084 4.597819-5.911482 9.195638-10.509301 13.793457-14.450288 4.597819-3.940988 9.85247-6.568313 13.793458-7.881976 1.970494-0.656831 3.940988-0.656831 5.911482-0.656831 1.970494 0 3.940988 0.656831 5.25465 1.313662 3.284157 1.313663 5.911482 4.597819 7.225144 7.881976 0.656831 1.970494 0.656831 3.284157 0.656832 3.940988 0 1.970494-1.313663 3.940988-3.284157 4.597819H584.579859l-1.313663-1.313663c-0.656831-0.656831-0.656831-1.313663-1.313662-1.970493v-1.970494-1.313663c-0.656831-1.313663-1.313663-2.627325-2.627326-2.627325-0.656831-0.656831-1.313663-0.656831-2.627325-0.656831-0.656831 0-1.970494 0-2.627325 0.656831-4.597819 1.313663-9.195638 5.25465-13.136626 11.166132-4.597819 6.568313-7.881976 15.10712-10.509301 25.616421-1.970494 8.538807-3.284157 15.10712-3.940988 21.018601-0.656831 5.911482-0.656831 9.85247 0 12.479795 0 1.313663 0.656831 2.627325 1.970494 3.284157h1.313663c0.656831 0 1.313663 0 1.970494-0.656832 3.284157-1.313663 7.225144-3.940988 10.509301-8.538807 3.940988-4.597819 7.225144-11.166132 9.195638-18.391276 1.970494-6.568313 3.940988-13.136626 4.597819-19.048108 0.656831-7.225144 0.656831-11.166132 0-12.479795-0.656831-1.313663-0.656831-1.970494-1.313663-1.970493h-0.656831-0.656831c-2.627325 0.656831-5.911482 4.597819-8.538807 10.5093-3.284157 6.568313-5.25465 15.10712-6.568313 24.95959-0.656831 3.940988-0.656831 7.881976-0.656832 11.822963 0 4.597819 0 8.538807-2.627325 9.195639h-1.313662c-1.313663 0-1.970494-0.656831-3.284157-1.313663-0.656831-0.656831-1.313663-1.313663-1.313662-2.627325-0.656831-2.627325-0.656831-6.568313-0.656832-12.479795 0.656831-5.25465 1.313663-11.166132 2.627325-17.734445 1.970494-8.538807 4.597819-15.10712 7.881976-20.361771 3.284157-5.911482 7.881976-9.195638 11.822964-10.5093 1.313663 0 1.970494-0.656831 3.284156-0.656832 1.970494 0 3.940988 0.656831 5.911482 1.970494 2.627325 1.970494 4.597819 4.597819 5.25465 8.538807 1.313663 4.597819 1.313663 10.509301 0 17.734445-1.313663 6.568313-3.940988 13.793457-7.225144 21.018602-3.284157 7.225144-7.881976 13.793457-11.822964 18.391276-4.597819 4.597819-9.195638 7.881976-13.793457 9.195639-0.656831 2.627325-2.627325 3.284157-3.940988 3.284156z" fill="#E83828" p-id="1714"></path><path d="M577.354715 777.03143c1.313663 0 3.284157 0 4.597819 0.656832 2.627325 1.313663 3.940988 3.284157 5.25465 5.911481 0.656831 1.313663 0.656831 2.627325 0.656831 3.284157 0 0.656831 0 1.313663-0.656831 1.313663h-0.656831s0-0.656831-0.656832-0.656832v-1.313662-1.970494c-0.656831-2.627325-1.970494-3.940988-3.940987-5.254651-1.313663-0.656831-2.627325-0.656831-3.940988-0.656831-1.313663 0-2.627325 0-3.284157 0.656831-5.25465 1.313663-10.509301 5.911482-15.10712 12.479795-4.597819 6.568313-8.538807 15.763951-11.166132 26.273252-1.970494 8.538807-3.284157 15.763951-3.940988 21.675433-0.656831 5.911482-0.656831 10.509301 0.656832 13.793457 0.656831 2.627325 1.970494 3.940988 3.284156 5.254651 0.656831 0.656831 1.970494 0.656831 3.284157 0.656831 0.656831 0 1.970494 0 2.627325-0.656831 3.940988-1.313663 8.538807-4.597819 12.479795-9.195638 3.940988-5.25465 7.225144-11.822963 9.852469-19.048108 2.627325-6.568313 3.940988-13.136626 4.597819-19.704939 0.656831-6.568313 0.656831-11.166132 0-13.793458-0.656831-1.970494-1.313663-3.284157-2.627325-3.940987-0.656831-0.656831-1.313663-0.656831-1.970494-0.656832h-1.970494c-3.940988 1.313663-7.225144 5.25465-10.5093 12.479795-3.284157 7.225144-5.911482 15.763951-7.225145 26.273252-0.656831 3.940988-0.656831 8.538807-0.656831 11.822964 0 3.940988 0 5.911482-0.656831 5.911481h-0.656832s-0.656831-0.656831-0.656831-1.313662c-0.656831-1.970494-0.656831-5.911482 0-11.166132 0.656831-5.25465 1.313663-11.166132 2.627325-17.077614 1.970494-7.881976 4.597819-14.450289 7.881976-19.704939 3.284157-5.25465 6.568313-7.881976 9.852469-9.195639h1.970494c1.313663 0 2.627325 0.656831 3.940988 1.313663 1.970494 1.313663 3.284157 3.284157 3.940988 6.568313 1.313663 3.940988 1.313663 9.85247 0 16.420783s-3.284157 13.136626-7.225144 20.36177c-3.284157 7.225144-7.225144 13.136626-11.166133 17.734445-3.940988 4.597819-8.538807 7.225144-12.479794 8.538807-1.970494 0.656831-3.284157 0.656831-5.254651 0.656831-3.284157 0-5.911482-0.656831-8.538807-2.627325-3.940988-2.627325-6.568313-6.568313-8.538807-12.479795-1.970494-6.568313-1.313663-14.450289 1.313663-22.332264 2.627325-8.538807 7.225144-17.077614 14.450289-25.616421 3.940988-5.25465 8.538807-9.85247 13.136626-13.793457 4.597819-3.940988 8.538807-5.911482 13.136626-7.225144 0.656831 0 2.627325-0.656831 3.940988-0.656832m0-6.568313c-1.970494 0-4.597819 0.656831-6.568313 1.313663-4.597819 1.313663-9.85247 3.940988-15.10712 8.538807-5.25465 3.940988-9.85247 9.195638-14.450289 14.450289-7.225144 9.195638-12.479795 18.391276-15.10712 27.586914-3.284157 9.85247-3.284157 18.391276-1.313663 26.273252 1.970494 7.225144 5.911482 13.136626 11.166133 16.420783 3.940988 2.627325 7.881976 3.940988 11.822963 3.940988 1.970494 0 4.597819-0.656831 6.568313-1.313663 5.25465-1.313663 10.509301-5.25465 15.763951-10.509301 4.597819-4.597819 8.538807-11.166132 12.479795-19.048107 3.940988-7.881976 6.568313-15.10712 7.881976-22.332265 1.313663-7.881976 1.313663-13.793457 0-19.048108 0-0.656831-0.656831-1.970494-0.656832-2.627325 2.627325-1.313663 3.940988-3.940988 4.597819-6.568313 0-1.313663 0-3.284157-0.656831-5.25465-1.313663-4.597819-4.597819-8.538807-9.195638-10.509301-1.970494-0.656831-4.597819-1.313663-7.225144-1.313663z m-15.763952 73.565106v-0.656831c0-3.284157 0-7.225144 0.656832-11.166132 1.313663-9.85247 3.284157-17.734445 6.568313-24.302758 1.970494-4.597819 3.940988-6.568313 5.25465-7.881976 0 1.970494 0.656831 4.597819-0.656831 10.509301-0.656831 5.911482-1.970494 11.822963-4.597819 18.391276-1.970494 5.911482-3.940988 11.166132-7.225145 15.10712z" fill="#EAB1D0" p-id="1715"></path><path d="M620.705581 847.31238l-0.656832-1.313663c-1.313663-0.656831-2.627325-1.970494-2.627325-3.284156-0.656831-1.313663 0-3.284157 0.656831-4.597819 1.313663-3.940988 1.970494-8.538807 1.313663-13.793458 0-0.656831 0-1.970494-0.656831-3.940988-1.313663-9.195638-1.313663-17.734445 0-24.959589 0-1.313663 0.656831-1.970494 0.656831-3.284157-2.627325 3.284157-5.25465 4.597819-7.881976 5.254651-0.656831 0-1.970494 0.656831-2.627325 0.656831-1.313663 0-2.627325 0-3.940988-0.656831-1.313663-0.656831-3.284157-1.970494-3.940988-5.254651-0.656831-1.313663-0.656831-3.284157 0-5.25465-0.656831 0.656831-1.313663 1.313663-1.313662 2.627325l-3.940988 7.881976c-1.970494 4.597819-3.284157 5.911482-5.25465 6.568313h-2.627326l-1.313662-0.656832-1.970494-1.970493c-0.656831-1.313663 0-2.627325 1.313662-5.254651 0.656831-1.313663 1.970494-3.940988 3.940988-7.225144 2.627325-4.597819 5.25465-8.538807 7.225145-11.166132 2.627325-3.284157 5.25465-5.25465 7.881975-5.911482 1.313663 0 1.970494-0.656831 3.284157-0.656831s3.284157 0.656831 3.940988 1.313662c1.970494 1.313663 3.284157 3.284157 4.597819 5.911482 0 1.313663 0.656831 2.627325 0.656831 3.940988 2.627325-3.284157 5.911482-7.225144 9.85247-13.136626 1.313663-1.970494 2.627325-3.940988 3.940987-6.568313 1.970494-3.284157 3.284157-5.25465 5.254651-5.254651h2.627325l1.313663 0.656832c0.656831 0.656831 1.313663 1.313663 1.313662 1.970494 0.656831 1.313663 0 1.970494-1.970494 7.225144-1.313663 2.627325-1.970494 5.911482-1.970494 9.195638v12.479795c0 6.568313 0 12.479795-0.656831 17.734445l-1.970494 9.85247 1.970494-3.940988c3.940988-7.881976 7.881976-20.36177 11.822963-36.125722 1.970494-7.225144 3.940988-13.793457 5.911482-18.391276 2.627325-5.911482 5.25465-8.538807 7.881976-9.195639H664.713278l1.970494 0.656832 0.656831 1.970494c0.656831 1.970494 0 3.284157-1.970494 5.911481-0.656831 1.313663-1.313663 1.970494-1.970494 2.627326-1.313663 2.627325-3.940988 7.881976-7.225144 21.675433-1.313663 5.25465-2.627325 9.195638-3.284157 12.479794-3.284157 12.479795-8.538807 23.645927-15.10712 33.498397-9.195638 13.793457-13.136626 16.420783-15.763951 17.077614l-0.656831 1.313662-0.656831 1.313663z" fill="#E83828" p-id="1716"></path><path d="M664.056446 752.071841s0.656831 0 0 0c0.656831 0.656831 0 1.313663-1.313662 3.284156-0.656831 1.313663-1.313663 1.970494-1.970494 2.627326-2.627325 3.940988-5.25465 11.166132-7.881976 22.989095-1.313663 5.25465-2.627325 9.195638-3.284156 12.479795-3.284157 11.822963-8.538807 22.989096-14.450289 32.841565-5.911482 9.85247-11.166132 15.10712-14.450288 15.763951h-0.656832-0.656831s-0.656831 0-0.656831-0.656831 0-1.313663 0.656831-2.627325c1.313663-4.597819 1.970494-9.85247 1.313663-15.763951 0-0.656831 0-1.970494-0.656832-3.940988-1.313663-9.195638-1.313663-17.077614 0-23.645927 0.656831-3.284157 1.970494-5.911482 2.627325-9.85247s2.627325-7.881976 5.254651-12.479794c-5.911482 7.881976-9.85247 12.479795-12.479795 15.10712-2.627325 2.627325-4.597819 4.597819-6.568313 4.597819h-1.970494c-0.656831 0-1.313663 0-1.970494-0.656832-1.313663-0.656831-1.970494-1.313663-1.970494-3.284156-0.656831-1.970494 0-4.597819 1.313663-7.881976s1.970494-5.25465 1.970494-5.911482c0 0 0-0.656831-0.656831-0.656831h-0.656832-0.656831c-0.656831 0-1.970494 1.313663-3.940988 3.284157s-3.284157 3.940988-5.25465 6.568313c-1.313663 2.627325-3.284157 5.25465-4.597819 8.538807-1.313663 3.284157-2.627325 4.597819-2.627326 5.25465h-0.656831-0.656831s-0.656831 0-0.656832-0.656831 0-1.313663 0.656832-3.284157c0.656831-1.313663 1.970494-3.940988 3.284156-7.225144 2.627325-4.597819 4.597819-7.881976 7.225145-10.509301 1.970494-2.627325 3.940988-3.940988 5.911481-4.597819h1.970494c0.656831 0 1.970494 0 2.627325 0.656831 1.313663 0.656831 1.970494 1.970494 2.627326 3.940988 0.656831 1.970494 0 5.911482-1.970494 10.509301-0.656831 0.656831-0.656831 1.970494-0.656832 1.970494 2.627325-1.313663 5.25465-3.940988 7.881976-6.568313 2.627325-3.284157 6.568313-7.881976 11.166132-14.450289 1.313663-1.970494 2.627325-3.940988 4.597819-6.568313 1.313663-2.627325 2.627325-3.940988 3.284157-3.940988h0.656831s0 0.656831 0.656831 0.656832-0.656831 1.970494-1.970493 5.25465c-1.313663 3.284157-1.970494 6.568313-1.970494 10.509301v12.479795c0 6.568313 0 12.479795-0.656832 17.077613-0.656831 4.597819-1.313663 9.85247-3.284156 14.450289-1.313663 4.597819-3.284157 9.85247-5.911482 14.450289 5.911482-5.911482 11.166132-13.136626 15.10712-21.018602s7.881976-21.018602 12.479795-36.782553c1.970494-7.225144 3.940988-13.136626 5.911482-17.734445s3.940988-7.225144 5.25465-7.881976c2.627325 3.284157 3.284157 3.284157 3.284156 3.284157m0-6.568313c-0.656831 0-1.313663 0-2.627325 0.656831-3.940988 1.313663-6.568313 4.597819-9.852469 11.166132-2.627325 5.25465-4.597819 11.822963-6.568313 19.048108-1.970494 6.568313-3.284157 13.136626-5.254651 18.391277v-5.254651-11.822963c0-2.627325 0.656831-5.911482 1.970494-8.538807 1.970494-5.25465 2.627325-7.225144 1.970494-9.195638-0.656831-1.313663-1.313663-1.970494-2.627325-3.284157s-2.627325-0.656831-4.597819-0.656831h-0.656832l-1.313662-0.656832c-2.627325 0.656831-4.597819 2.627325-7.225144 6.568313-1.313663 2.627325-2.627325 3.940988-3.940988 5.911482-1.970494 3.284157-3.940988 5.25465-5.911482 7.881976-1.313663-2.627325-3.284157-4.597819-4.597819-5.254651-1.970494-1.313663-3.940988-1.313663-5.911482-1.313662-1.313663 0-2.627325 0-3.940988 0.656831-3.284157 0.656831-5.911482 3.284157-9.195638 6.568313-2.627325 2.627325-5.25465 6.568313-7.881976 11.822964-1.970494 3.284157-3.284157 5.911482-3.940987 7.225144-1.313663 2.627325-1.970494 5.25465-1.313663 7.225144 0.656831 1.970494 2.627325 3.940988 4.597819 4.597819 0.656831 0 1.313663 0.656831 2.627325 0.656832h1.970494c3.284157-1.313663 5.25465-3.940988 7.225145-8.538807 0.656831-0.656831 0.656831-1.313663 1.313662-2.627326 1.313663 1.970494 2.627325 3.284157 3.940988 3.940988 1.313663 0.656831 3.284157 1.313663 5.25465 1.313663 1.313663 0 2.627325 0 3.940988-0.656831 0.656831 0 1.313663-0.656831 1.970494-0.656832-0.656831 6.568313-0.656831 13.136626 0.656831 21.018602 0 1.313663 0.656831 2.627325 0.656832 3.284156 0.656831 4.597819 0 8.538807-0.656832 12.479795-0.656831 1.970494-1.313663 3.940988-0.656831 6.568313s2.627325 4.597819 5.254651 5.254651h1.970494c0.656831 0 1.313663 0 2.627325-0.656832 3.284157-1.313663 8.538807-3.940988 17.734445-19.048107 6.568313-10.509301 11.822963-21.675433 15.10712-34.812059 0.656831-2.627325 1.970494-7.225144 3.284156-12.479795 3.284157-14.450289 5.911482-19.048108 7.225145-21.018602 0.656831-0.656831 1.313663-1.313663 1.970494-2.627325 1.313663-1.313663 3.284157-4.597819 2.627325-8.538807-0.656831-2.627325-3.284157-4.597819-5.911482-5.25465l-1.313663 0.656831z" fill="#EAB1D0" p-id="1717"></path><path d="M681.13406 826.950609c-3.940988 0-7.225144-0.656831-10.509301-1.970494-6.568313-2.627325-10.509301-7.225144-12.479794-13.793457-1.970494-7.225144-0.656831-13.793457 3.940988-20.36177 3.284157-4.597819 8.538807-9.195638 15.763951-13.136626l-1.313663-1.313663c-1.970494-1.970494-3.284157-4.597819-4.597819-7.225144-1.313663-5.911482 0-11.822963 4.597819-17.077614 3.940988-5.25465 9.85247-9.195638 17.734445-11.166132 2.627325-0.656831 5.25465-1.313663 7.881976-1.313663 2.627325 0 5.25465 0.656831 7.881976 1.313663 4.597819 1.970494 7.881976 5.25465 9.195638 10.509301 1.313663 4.597819 0.656831 8.538807-1.313663 12.479794-1.970494 3.940988-5.25465 6.568313-9.195638 7.881976-1.313663 0-1.970494 0.656831-3.284157 0.656831h-1.313662c1.970494 0.656831 2.627325 2.627325 2.627325 3.284157 0 1.313663 0.656831 3.284157-1.313663 5.25465-1.313663 1.313663-2.627325 1.970494-3.940987 2.627325-1.970494 0.656831-3.940988 0.656831-5.911482 0.656832h-1.313663c-1.970494 0-3.940988-0.656831-5.911481-1.313663-3.940988 3.284157-7.225144 7.225144-9.195639 12.479795-1.970494 5.911482-2.627325 11.166132-1.313662 16.420782 0.656831 2.627325 1.970494 4.597819 3.940988 5.254651 1.313663 0.656831 1.970494 0.656831 3.940987 0.656831 1.313663 0 2.627325 0 4.59782-0.656831 5.911482-1.970494 10.509301-4.597819 13.793457-9.195638s3.940988-8.538807 3.284156-11.822964c-0.656831-1.313663-1.313663-2.627325-1.970494-3.284156-0.656831 0-1.313663-0.656831-1.970493-0.656832h-1.313663c-1.313663 0.656831-3.284157 1.970494-3.940988 3.940988-1.313663 2.627325-1.970494 5.25465-2.627325 7.881976v3.940988c0.656831 4.597819-1.970494 5.911482-3.284157 6.568313h-1.313662c-1.313663 0-2.627325-0.656831-3.284157-1.970494-0.656831-0.656831-1.313663-1.970494-1.970494-4.597819-1.313663-5.25465-1.313663-10.509301 1.313663-15.10712 2.627325-4.597819 5.911482-7.881976 11.166132-9.195639 1.313663-0.656831 3.284157-0.656831 4.597819-0.656831 1.970494 0 4.597819 0.656831 6.568313 1.313663 3.284157 1.970494 5.25465 4.597819 6.568313 8.538807 1.970494 5.911482 0 12.479795-4.597819 19.048107s-11.166132 10.509301-19.048108 13.136626c-4.597819 1.313663-7.881976 1.970494-11.166132 1.970494z m21.675433-79.476587c-1.313663 0-1.970494 0-3.284156 0.656831-3.284157 1.313663-6.568313 3.940988-8.538807 8.538807-2.627325 4.597819-2.627325 9.195638-1.313663 13.793457 0 0.656831 0 0.656831 0.656832 1.313663 0.656831 0 0.656831 0 1.313662-0.656831 2.627325-0.656831 4.597819-1.313663 6.568313-1.313663h1.970494c-2.627325-1.313663-4.597819-3.940988-5.25465-6.568313-0.656831-3.284157-0.656831-6.568313 1.313662-9.852469 1.313663-3.284157 3.284157-5.25465 6.568313-5.911482H704.779987l1.313663 0.656831 0.656831 1.970494c0.656831 1.313663 0.656831 1.313663-2.627325 6.568313-0.656831 1.970494-1.313663 3.284157-0.656831 4.597819 0 0.656831 0.656831 1.313663 0.656831 1.313663h1.313662c0.656831 0 2.627325-0.656831 3.284157-3.284157 0.656831-1.970494 1.313663-3.940988 0.656831-5.911481-0.656831-2.627325-1.970494-3.940988-3.940988-5.254651 0-0.656831-1.313663-0.656831-2.627325-0.656831z" fill="#E83828" p-id="1718"></path><path d="M701.495831 742.219371c2.627325 0 4.597819 0.656831 6.568313 1.313663 3.940988 1.313663 6.568313 4.597819 7.881975 8.538807 1.313663 3.284157 0.656831 6.568313-0.656831 9.852469s-3.940988 5.25465-7.225144 5.911482c-0.656831 0-1.313663 0.656831-1.970494 0.656831-1.313663 0-2.627325 0-3.284157-0.656831-1.970494-1.313663-3.284157-2.627325-3.284156-4.597819-0.656831-2.627325-0.656831-4.597819 1.313662-7.225144 1.313663-2.627325 2.627325-3.940988 4.597819-4.597819h0.656832s0.656831 0 0.656831 0.656831l-1.970494 3.940988c-1.313663 2.627325-1.970494 4.597819-1.313662 7.225144 0.656831 1.313663 1.313663 2.627325 2.627325 3.284157 0.656831 0.656831 1.313663 0.656831 1.970494 0.656831h1.970494c2.627325-0.656831 3.940988-2.627325 5.25465-5.254651 1.313663-2.627325 1.313663-5.25465 0.656831-8.538806s-2.627325-5.911482-5.911481-7.225145c-1.970494-0.656831-3.284157-1.313663-5.254651-1.313662-1.313663 0-2.627325 0-3.940988 0.656831-4.597819 1.313663-7.881976 4.597819-10.5093 10.509301-2.627325 5.25465-3.284157 11.166132-1.970494 16.420782 0 0.656831 0.656831 1.313663 0.656831 2.627325s0.656831 1.313663 1.313663 1.970494c0.656831 0 0.656831-0.656831 1.313662-0.656831s1.313663-0.656831 2.627325-0.656831c1.970494-0.656831 3.940988-0.656831 5.911482-0.656832h1.970494c1.970494 0 3.284157 1.313663 3.940988 1.970494 0 0.656831 0 1.313663-0.656832 1.970494-0.656831 0.656831-1.313663 1.313663-2.627325 1.970494-1.313663 0.656831-3.284157 0.656831-4.597819 0.656832h-1.313662c-1.970494 0-4.597819-0.656831-7.225145-1.313663-5.25465 3.284157-9.195638 8.538807-11.822963 15.10712-2.627325 6.568313-2.627325 12.479795-1.313663 18.391276 1.313663 3.940988 3.284157 5.911482 5.911482 7.881976 1.313663 0.656831 3.284157 1.313663 5.25465 1.313663 1.970494 0 3.284157 0 5.254651-0.656832 6.568313-1.970494 11.822963-5.25465 15.763951-10.509301 3.940988-5.25465 5.25465-9.85247 3.284156-15.10712-0.656831-1.970494-1.970494-3.940988-3.284156-4.597819-1.313663-0.656831-1.970494-0.656831-3.284157-0.656831-0.656831 0-1.313663 0-1.970493 0.656831-2.627325 0.656831-4.597819 2.627325-5.911482 5.254651-1.970494 2.627325-2.627325 5.911482-3.284157 9.852469v4.597819c0 1.970494 0 2.627325-0.656831 2.627326h-0.656831c-0.656831 0-0.656831 0-1.313663-0.656832s-0.656831-1.313663-1.313662-3.284156c-1.313663-4.597819-1.313663-9.195638 0.656831-13.136626 1.970494-3.940988 5.25465-6.568313 9.195638-7.881976 1.313663-0.656831 2.627325-0.656831 3.940988-0.656831 1.970494 0 3.284157 0.656831 4.597819 1.313662 2.627325 1.313663 3.940988 3.284157 5.25465 6.568313 1.313663 5.25465 0 10.509301-3.940987 16.420783-3.940988 5.911482-9.85247 9.85247-17.077614 11.822963-3.284157 0.656831-6.568313 1.313663-9.195638 1.313663-3.284157 0-6.568313-0.656831-9.195639-1.970494-5.25465-1.970494-9.195638-5.911482-10.509301-11.822963-1.970494-5.911482-0.656831-11.822963 3.284157-17.734445 3.940988-5.911482 10.509301-10.509301 19.704939-15.10712-1.970494-0.656831-3.940988-1.970494-5.911482-3.940988-1.970494-1.970494-2.627325-3.940988-3.284156-5.911482-1.313663-4.597819 0-9.195638 3.940988-14.450289 3.940988-5.25465 9.195638-8.538807 15.763951-10.5093-0.656831-2.627325 1.313663-2.627325 3.940988-2.627326m-5.254651 36.125722c0.656831 0 1.970494 0 2.627325-0.656831 0.656831 0 1.313663-0.656831 1.313663-0.656832s0.656831-0.656831 0-1.313662c0-0.656831-0.656831-1.313663-1.970494-1.313663h-0.656831c-1.313663 0-2.627325 0-3.940988 0.656831-0.656831 0-1.313663 0.656831-1.970494 0.656832-0.656831 0.656831-1.313663 0.656831-1.313662 0.656831 1.313663 0.656831 2.627325 1.313663 3.940987 1.313663 0.656831 0.656831 1.313663 0.656831 1.970494 0.656831m5.254651-42.694035c-2.627325 0-5.911482 0.656831-9.195639 1.313663-7.881976 2.627325-14.450289 6.568313-19.048107 12.479795-6.568313 8.538807-5.911482 15.763951-4.597819 20.36177 0.656831 2.627325 1.970494 4.597819 3.284156 6.568313-5.25465 3.284157-9.85247 7.225144-13.136626 11.822964-5.25465 7.225144-6.568313 15.10712-4.597819 22.989095 1.970494 7.225144 7.225144 13.136626 14.450289 15.763951 3.940988 1.313663 7.881976 2.627325 11.822963 2.627326 3.284157 0 7.225144-0.656831 11.166132-1.970494 8.538807-2.627325 15.763951-7.225144 20.36177-13.793458 5.25465-7.225144 7.225144-14.450289 5.254651-21.675433-1.313663-4.597819-3.940988-8.538807-8.538807-10.5093-0.656831 0-1.313663-0.656831-1.313663-0.656832 1.970494-3.284157 1.970494-5.911482 1.313663-7.225144 4.597819-1.313663 8.538807-4.597819 10.509301-9.195638 2.627325-4.597819 2.627325-9.85247 1.313662-15.10712-1.970494-5.911482-5.911482-10.509301-11.166132-12.479795-1.970494-0.656831-4.597819-1.313663-7.881975-1.313663z m-9.195639 31.527903v-1.970494 1.970494z m-8.538806 46.635022c-0.656831 0-0.656831 0 0 0-1.313663-0.656831-1.970494-1.313663-3.284157-3.940987-1.313663-4.597819-1.313663-9.195638 0.656831-14.450289 0.656831-0.656831 0.656831-1.970494 1.313663-2.627325-1.970494 5.25465-2.627325 10.509301-0.656831 16.420782 0.656831 2.627325 1.313663 3.940988 1.970494 4.597819z m14.450288-5.25465s0-0.656831 0 0v-3.940988c0-2.627325 0.656831-4.597819 1.970494-6.568313 0.656831-1.313663 1.970494-1.970494 2.627325-2.627325h0.656832s0.656831 0.656831 0.656831 1.313662c0 1.313663 1.313663 3.940988-2.627325 9.195639-1.313663 0.656831-1.970494 1.970494-3.284157 2.627325z" fill="#EAB1D0" p-id="1719"></path></svg>