<?xml version="1.0" standalone="no"?><!DOCTYPE svg PUBLIC "-//W3C//DTD SVG 1.1//EN" "http://www.w3.org/Graphics/SVG/1.1/DTD/svg11.dtd"><svg t="1681307011599" class="icon" viewBox="0 0 1024 1024" version="1.1" xmlns="http://www.w3.org/2000/svg" p-id="1857" xmlns:xlink="http://www.w3.org/1999/xlink" width="200" height="200"><path d="M284 890c-18.7 0-34-15.3-34-34V168c0-18.7 15.3-34 34-34h496c18.7 0 34 15.3 34 34v688c0 18.7-15.3 34-34 34H284z" fill="#FFD766" p-id="1858"></path><path d="M780 140c15.4 0 28 12.6 28 28v688c0 15.4-12.6 28-28 28H284c-15.4 0-28-12.6-28-28V168c0-15.4 12.6-28 28-28h496m0-12H284c-22.1 0-40 17.9-40 40v688c0 22.1 17.9 40 40 40h496c22.1 0 40-17.9 40-40V168c0-22.1-17.9-40-40-40z" fill="#4C3800" p-id="1859"></path><path d="M284 890c-18.7 0-34-15.3-34-34V168c0-18.7 15.3-34 34-34h146v756H284z" fill="#FFEDC0" p-id="1860"></path><path d="M424 140v744H284c-15.4 0-28-12.6-28-28V168c0-15.4 12.6-28 28-28h140m12-12H284c-22.1 0-40 17.9-40 40v688c0 22.1 17.9 40 40 40h152V128z" fill="#4C3800" p-id="1861"></path><path d="M658 458c-1.1 0-2-0.9-2-2v-20c0-1.1 0.9-2 2-2h112c1.1 0 2 0.9 2 2v20c0 1.1-0.9 2-2 2H658z" fill="#FFEDC0" p-id="1862"></path><path d="M766 440v12H662v-12h104m4-12H658c-4.4 0-8 3.6-8 8v20c0 4.4 3.6 8 8 8h112c4.4 0 8-3.6 8-8v-20c0-4.4-3.6-8-8-8z" fill="#4C3800" p-id="1863"></path><path d="M658 524c-1.1 0-2-0.9-2-2v-20c0-1.1 0.9-2 2-2h112c1.1 0 2 0.9 2 2v20c0 1.1-0.9 2-2 2H658z" fill="#FFEDC0" p-id="1864"></path><path d="M766 506v12H662v-12h104m4-12H658c-4.4 0-8 3.6-8 8v20c0 4.4 3.6 8 8 8h112c4.4 0 8-3.6 8-8v-20c0-4.4-3.6-8-8-8z" fill="#4C3800" p-id="1865"></path><path d="M658 590c-1.1 0-2-0.9-2-2v-20c0-1.1 0.9-2 2-2h112c1.1 0 2 0.9 2 2v20c0 1.1-0.9 2-2 2H658z" fill="#FFEDC0" p-id="1866"></path><path d="M766 572v12H662v-12h104m4-12H658c-4.4 0-8 3.6-8 8v20c0 4.4 3.6 8 8 8h112c4.4 0 8-3.6 8-8v-20c0-4.4-3.6-8-8-8z" fill="#4C3800" p-id="1867"></path><path d="M293 225h-86c-1.7 0-3 1.3-3 3v6c0 1.7 1.3 3 3 3h86c1.7 0 3-1.3 3-3v-6c0-1.7-1.3-3-3-3zM293 327h-86c-1.7 0-3 1.3-3 3v6c0 1.7 1.3 3 3 3h86c1.7 0 3-1.3 3-3v-6c0-1.7-1.3-3-3-3zM293 419h-86c-1.7 0-3 1.3-3 3v6c0 1.7 1.3 3 3 3h86c1.7 0 3-1.3 3-3v-6c0-1.7-1.3-3-3-3zM293 511h-86c-1.7 0-3 1.3-3 3v6c0 1.7 1.3 3 3 3h86c1.7 0 3-1.3 3-3v-6c0-1.7-1.3-3-3-3zM293 603h-86c-1.7 0-3 1.3-3 3v6c0 1.7 1.3 3 3 3h86c1.7 0 3-1.3 3-3v-6c0-1.7-1.3-3-3-3zM293 695h-86c-1.7 0-3 1.3-3 3v6c0 1.7 1.3 3 3 3h86c1.7 0 3-1.3 3-3v-6c0-1.7-1.3-3-3-3zM293 787h-86c-1.7 0-3 1.3-3 3v6c0 1.7 1.3 3 3 3h86c1.7 0 3-1.3 3-3v-6c0-1.7-1.3-3-3-3z" fill="#4C3800" p-id="1868"></path></svg>